<svg width="64" height="64" viewBox="0 0 64 64" fill="none" xmlns="http://www.w3.org/2000/svg">
<path fill-rule="evenodd" clip-rule="evenodd" d="M32.7085 0C39.1445 0.0775306 45.4247 2.0262 51.0176 6.04134C55.7953 9.47115 59.2264 13.984 61.5184 19.3702C62.8685 22.5446 63.687 25.859 63.9167 29.3015C64.5334 38.5532 61.7237 46.6385 55.5191 53.5357C54.6404 54.5127 53.6625 55.4102 52.67 56.2758C48.1914 60.1825 42.9769 62.587 37.1287 63.5362C28.616 64.9173 20.7136 63.221 13.5927 58.3557C8.12464 54.6198 4.33929 49.5078 2.01163 43.3278C0.570432 39.5007 -0.0788501 35.5288 0.00760863 31.4425C0.323166 16.554 10.9657 3.76678 25.5789 0.705494C27.7844 0.242995 30.0132 0.0151034 32.7085 0ZM29.561 44.5448C30.3031 44.5526 31.0039 44.3801 31.7144 44.0508C33.708 43.1275 34.6974 40.9445 34.5278 39.3486C34.2698 36.925 32.1575 34.8126 29.4732 34.6075C27.3538 34.4447 25.2213 36.045 24.6332 38.1447C23.7686 41.2355 26.2894 44.5096 29.561 44.5448ZM37.5626 18.8352C37.8466 18.7866 38.3465 18.7372 38.8269 18.6124C41.1673 18.0022 42.5752 15.0648 41.1694 12.7738C40.7085 12.0216 40.1221 11.4091 39.3467 10.9778C38.2806 10.3851 37.1384 10.1384 35.929 10.2599C34.8643 10.3669 33.8833 10.7103 33.1045 11.4812C32.4518 12.127 31.9829 12.8906 31.9401 13.8249C31.8836 15.0416 32.2866 16.1213 33.1183 17.0185C34.255 18.2445 35.6999 18.7728 37.5626 18.8352ZM49.3025 35.3818C49.3348 35.6822 49.3537 36.0917 49.4273 36.4914C49.6679 37.7943 50.2983 38.8626 51.3802 39.654C51.829 39.9823 52.3155 40.133 52.8719 40.0769C54.0564 39.9571 54.9943 39.4006 55.7217 38.478C56.3652 37.6611 56.7043 36.7099 56.8736 35.6986C57.1901 33.8094 56.7662 32.1222 55.4283 30.7098C54.3393 29.56 52.5819 29.4264 51.3543 30.4269C50.9614 30.7474 50.6213 31.1512 50.3239 31.565C49.5306 32.6696 49.3823 33.9634 49.3025 35.3818ZM17.1062 19.9314C17.0867 18.9668 16.899 18.2465 16.4691 17.5924C16.2995 17.3343 16.0852 17.194 15.7757 17.1413C14.6824 16.957 13.6778 17.1859 12.8032 17.8381C11.2893 18.9671 10.4153 20.4828 10.2992 22.3781C10.2286 23.53 10.6548 24.5081 11.5255 25.2874C11.7317 25.4723 11.9517 25.5478 12.2252 25.5448C13.2674 25.5327 14.1424 25.1172 14.8889 24.4268C15.9049 23.4874 16.5613 22.3218 16.9216 20.9943C17.0319 20.5889 17.0672 20.1633 17.1062 19.9314ZM44.4975 50.946C42.5618 51.1081 40.7852 51.6807 39.2885 52.9554C38.6452 53.5031 38.178 54.1888 37.8627 54.9772C37.7648 55.2219 37.7726 55.4347 37.8964 55.667C38.3815 56.5816 39.1112 57.1202 40.1709 57.1431C40.4723 57.1498 40.7781 57.1333 41.0758 57.09C42.4269 56.894 43.607 56.2771 44.7269 55.5445C45.1784 55.2488 45.5868 54.8745 45.9683 54.4906C46.3582 54.0982 46.6051 53.6092 46.6576 53.0427C46.7128 52.4516 46.4894 51.9569 46.1618 51.4806C45.8916 51.0883 45.4872 51.0574 45.0852 50.9963C44.8914 50.9668 44.6933 50.9618 44.4975 50.946ZM12.6054 49.1389C12.9209 48.3892 12.9293 47.638 12.7786 46.8879C12.4614 45.3061 11.6705 43.9538 10.6343 42.7449C10.1626 42.1948 9.59813 41.7249 8.9428 41.3886C8.35979 41.0889 8.09133 41.1583 7.70345 41.6863C7.35357 42.1622 7.26072 42.7167 7.29672 43.2805C7.40303 44.9298 7.97426 46.4002 9.08174 47.6451C9.64557 48.2791 10.3224 48.7503 11.1386 49.006C11.6038 49.1514 12.0768 49.2349 12.6054 49.1389ZM27.4413 3.50465C27.2428 3.40396 27.0934 3.29085 26.9265 3.25024C26.4731 3.13982 26.0155 3.00456 25.5543 2.97972C24.2779 2.9126 23.0527 3.19688 21.8786 3.67717C20.7742 4.12859 19.8615 4.83677 19.1944 5.83695C19.1069 5.96683 19.0447 6.11384 18.9663 6.26018C21.0773 6.89552 25.6751 5.40532 27.4413 3.50465ZM52.2623 10.332C52.6011 12.5321 55.6678 16.463 57.2897 16.7963C57.3328 16.4711 57.2561 16.166 57.1635 15.8659C56.9435 15.1527 56.5943 14.5009 56.1873 13.8797C55.4441 12.7459 54.5738 11.7266 53.4643 10.9308C53.1107 10.6767 52.7427 10.4404 52.2623 10.332ZM15.77 58.9726C17.2011 60.4202 22.5545 62.4984 24.4532 62.3363C21.778 60.4698 18.9162 59.3569 15.77 58.9726Z" fill="#C8B437"/>
</svg>
