<svg width="500" height="625" viewBox="0 0 500 625" fill="none" xmlns="http://www.w3.org/2000/svg">
<g clip-path="url(#clip0_3_2)">
<path d="M499.089 908.012L499.089 91.582C499.089 41.7858 458.721 1.41803 408.925 1.41803L91.2705 1.41803C41.4743 1.41803 1.10659 41.7858 1.10659 91.582L1.10659 908.012C1.10659 957.808 41.4743 998.176 91.2705 998.176H408.925C458.721 998.176 499.089 957.808 499.089 908.012Z" fill="#121212" stroke="#C8B432" stroke-width="2"/>
<path d="M500 499.902H0.195835M250.368 573.444C209.687 573.444 176.713 540.589 176.713 500.067C176.713 459.545 209.687 426.69 250.368 426.69C291.05 426.69 324.023 459.545 324.023 500.067C324.023 540.589 291.05 573.444 250.368 573.444ZM279.716 890.721V928.735H220.48L220.48 890.721H279.716Z" stroke="#C8B432" stroke-width="2"/>
<path d="M313.757 829.352V928.735H186.44V829.352H313.757ZM221.021 108.875V70.8616H280.257V108.875H221.021Z" stroke="#C8B432" stroke-width="2"/>
<path d="M186.98 170.243V70.8607L314.297 70.8607V170.243H186.98Z" stroke="#C8B432" stroke-width="2"/>
</g>
<defs>
<clipPath id="clip0_3_2">
<rect width="625" height="500" fill="white" transform="matrix(0 1 -1 0 500 0)"/>
</clipPath>
</defs>
</svg>
